<svg width="1088" height="184" viewBox="0 0 1088 184" fill="none" xmlns="http://www.w3.org/2000/svg">
<path d="M518.83 67.8083L532.828 85.2635L525.879 85.2634L515.367 72.1332L504.855 85.2646L497.906 85.2647L511.905 67.8083L497.926 50.3472L504.826 50.3459L515.367 63.491L525.908 50.3471L532.808 50.3484L518.83 67.8083Z" fill="white"/>
<path fill-rule="evenodd" clip-rule="evenodd" d="M178.939 16.5452V116.021H198.552V79.7834H222.711C242.178 79.7834 256.673 66.2843 256.673 47.9524C256.673 29.7605 242.747 16.5452 223.421 16.5452H178.939ZM221.29 63.0164H198.552V34.0262H221.29C230.669 34.0262 237.206 39.9938 237.206 48.5207C237.206 57.0477 230.669 63.0164 221.29 63.0164ZM283.957 10.8623L265.91 16.5452V116.021H283.957V10.8623ZM327.867 117.017C336.679 117.017 344.637 113.748 350.605 108.205V116.021H368.652V45.1115H350.605V52.9244C344.92 47.2416 337.103 43.9736 328.58 43.9736C310.105 43.9736 293.335 59.3202 293.335 80.4941C293.335 101.667 309.82 117.017 327.867 117.017ZM330.994 100.816C320.053 100.816 311.24 92.4303 311.24 80.4941C311.24 68.5568 320.053 60.1722 330.994 60.1722C342.079 60.1722 350.746 68.5568 350.746 80.4941C350.746 92.4303 342.079 100.816 330.994 100.816ZM452.78 45.1115H433.879L413.698 86.8899L393.094 45.1115H372.917L403.327 107.067L383.005 147.429H402.616L452.78 45.1115ZM103.577 86.5356L97.7832 77.2858H80.8661L86.6692 68.0204H92.0143L85.5534 57.7055L67.5326 86.5356H19.4555L31.032 68.0204H22.5326L28.3103 58.7551H65.4731L59.691 68.0204H41.9671L36.1729 77.2858H62.3928L85.5534 40.2189L114.5 86.5356H103.577ZM39.89 40.2189H78.0109L72.2166 49.4887H34.1002L39.89 40.2189ZM66.3097 0C29.6899 0 0 29.6921 0 66.313C0 102.944 29.6899 132.623 66.3097 132.623C102.93 132.623 132.623 102.944 132.623 66.313C132.623 29.6921 102.93 0 66.3097 0Z" fill="#FF4747"/>
<g clip-path="url(#clip0)">
<path fill-rule="evenodd" clip-rule="evenodd" d="M581.468 66.1987C581.468 29.6999 611.06 0 647.426 0C683.792 0 713.384 29.6999 713.384 66.1987C713.384 102.698 683.792 132.398 647.426 132.398C611.06 132.398 581.468 102.698 581.468 66.1987ZM590.629 66.1987C590.629 97.6903 616.049 123.224 647.426 123.224C678.803 123.224 704.244 97.7118 704.244 66.1987C704.244 34.6859 678.803 9.17331 647.426 9.17331C616.049 9.17331 590.629 34.7074 590.629 66.1987ZM691.492 77.1617H690.826V76.8599H692.503V77.1617H691.814V78.5862H691.492V77.1617ZM612.135 83.5102H608.329C607.468 83.5102 607.06 83.0355 607.06 82.1073V80.5964C607.06 80.1647 607.167 79.8194 607.404 79.5387C607.64 79.2583 607.942 79.1285 608.329 79.1285H611.318C612.028 79.1285 612.501 79.4741 612.716 80.1647L613.124 81.6107H615.856V80.0137C615.856 78.9345 615.512 78.0711 614.78 77.3372C614.049 76.6248 613.167 76.2795 612.135 76.2795H607.726C606.694 76.2795 605.791 76.6463 605.038 77.4017C604.307 78.1357 603.941 79.0206 603.941 80.0567V82.6469C603.941 83.7046 604.307 84.5895 605.038 85.3449C605.791 86.0788 606.694 86.4456 607.726 86.4456H611.533C612.372 86.4456 612.802 86.9422 612.802 87.8917V89.8561C612.802 90.2659 612.694 90.6331 612.458 90.892C612.221 91.1727 611.92 91.3236 611.533 91.3236H608.501C607.748 91.3236 607.275 90.9784 607.081 90.2878L606.673 88.6471H603.92V90.4172C603.92 91.4965 604.264 92.3813 604.995 93.0938C605.705 93.8058 606.587 94.173 607.662 94.173H612.135C613.167 94.173 614.071 93.8058 614.802 93.0504C615.533 92.3165 615.899 91.41 615.899 90.3523V87.3305C615.899 86.2947 615.533 85.4098 614.78 84.6544C614.049 83.8989 613.167 83.5102 612.135 83.5102ZM627.641 76.2795H619.576V94.1511H622.716V87.5897H627.619C628.673 87.5897 629.555 87.2226 630.329 86.4672C631.06 85.7336 631.426 84.8268 631.426 83.791V80.0352C631.426 78.9991 631.06 78.1142 630.329 77.3802C629.598 76.6463 628.695 76.2795 627.641 76.2795ZM628.308 83.2514C628.308 83.6831 628.178 84.0283 627.942 84.3087C627.705 84.5895 627.405 84.7189 627.039 84.7189H622.738V79.1719H627.039C627.405 79.1719 627.705 79.3013 627.942 79.582C628.178 79.8624 628.308 80.2077 628.308 80.6394V83.2514ZM661.383 85.3664C661.835 84.7189 662.05 83.9634 662.05 83.165V80.0567C662.05 79.0424 661.685 78.1357 660.932 77.4017C660.2 76.6681 659.297 76.2795 658.244 76.2795H650.372V94.1511H653.534V87.1581H656.523L659.426 94.1511H662.781L659.663 86.7694C660.33 86.4672 660.91 86.014 661.383 85.3664ZM658.889 82.8412C658.889 83.2729 658.781 83.6182 658.545 83.8989C658.308 84.1578 658.007 84.2872 657.641 84.2872H653.512V79.1719H657.641C658.007 79.1719 658.308 79.3013 658.545 79.582C658.781 79.8624 658.889 80.2077 658.889 80.6394V82.8412ZM668.567 79.1695H664.027V76.2766H676.286V79.1695H671.727V94.1485H668.567V79.1695ZM686.782 83.5102H682.976C682.137 83.5102 681.707 83.0355 681.707 82.1073V80.5964C681.707 80.1647 681.814 79.8194 682.051 79.5387C682.266 79.2583 682.589 79.1285 682.976 79.1285H685.965C686.675 79.1285 687.126 79.4741 687.363 80.1647L687.772 81.6107H690.503V80.0137C690.503 78.9345 690.137 78.0711 689.427 77.3372C688.696 76.6248 687.815 76.2795 686.761 76.2795H682.352C681.298 76.2795 680.395 76.6463 679.664 77.4017C678.933 78.1357 678.546 79.0206 678.546 80.0567V82.6469C678.546 83.7046 678.933 84.5895 679.664 85.3449C680.395 86.0788 681.298 86.4456 682.352 86.4456H686.137C686.997 86.4456 687.406 86.9422 687.406 87.8917V89.8561C687.406 90.2659 687.298 90.6331 687.062 90.892C686.825 91.1727 686.524 91.3236 686.137 91.3236H683.126C682.373 91.3236 681.9 90.9784 681.707 90.2878L681.298 88.6471H678.546V90.4172C678.546 91.4965 678.911 92.3813 679.621 93.0938C680.352 93.8058 681.212 94.173 682.287 94.173H686.739C687.793 94.173 688.696 93.8058 689.427 93.0504C690.159 92.3165 690.524 91.41 690.524 90.3523V87.3305C690.524 86.2947 690.159 85.4098 689.384 84.6544C688.696 83.8989 687.815 83.5102 686.782 83.5102ZM622.783 30.6489H656.697L651.491 38.893L617.599 38.9163L622.783 30.6489ZM669.535 55.449H664.459L659.234 63.7368H674.739L679.965 72.0247H689.858L663.621 30.3464L642.546 63.7587H619.492L624.782 55.4709H639.104L644.308 47.1816H612.373L607.169 55.4709H614.824L604.393 72.0247H647.319L663.621 46.037L669.535 55.449ZM692.914 76.8621H693.193L693.86 77.8983L694.548 76.8621H694.785V78.5889H694.484V77.5097V77.3153C694.465 77.3532 694.454 77.3828 694.445 77.4095C694.433 77.4438 694.422 77.4734 694.398 77.5097L693.86 78.3515H693.817L693.258 77.4881C693.238 77.4471 693.197 77.3861 693.157 77.3242L693.151 77.3153C693.151 77.3617 693.163 77.3956 693.174 77.4271C693.184 77.4544 693.193 77.4797 693.193 77.5097V78.5889H692.914V76.8621ZM638.483 76.2795H642.741C643.816 76.2795 644.677 76.6463 645.429 77.4017C646.182 78.1142 646.547 79.0206 646.547 80.0567V90.3308C646.547 91.41 646.182 92.3165 645.429 93.0504C644.677 93.8058 643.795 94.173 642.741 94.173H638.483C637.408 94.173 636.504 93.7843 635.773 93.0504C635.042 92.3165 634.655 91.41 634.655 90.3308V80.0567C634.655 79.0206 635.042 78.1357 635.773 77.4017C636.526 76.6463 637.429 76.2795 638.483 76.2795ZM643.042 90.8274C643.3 90.5467 643.408 90.2014 643.408 89.7912V80.6179C643.408 80.1862 643.279 79.8409 643.042 79.5602C642.806 79.2798 642.504 79.1503 642.139 79.1503H639.128C638.741 79.1503 638.44 79.2798 638.203 79.5602C637.967 79.8409 637.859 80.1862 637.859 80.6179V89.7912C637.859 90.2014 637.967 90.5467 638.203 90.8274C638.44 91.1078 638.741 91.2591 639.128 91.2591H642.139C642.504 91.2591 642.806 91.1078 643.042 90.8274ZM1045.41 50.552H1048.16L1049.15 47.8531H1045.41V45.3495H1050.06L1051.03 42.6725H1041.61V54.9978H1045.41V50.552ZM1052.21 42.6725H1056.04V54.9978H1052.21V42.6725ZM1062.49 50.552H1065.24L1066.21 47.8531H1062.49V45.3495H1067.11L1068.08 42.6725H1058.66V54.9978H1062.49V50.552ZM1070.36 53.3352L1069.89 54.997H1066.12L1070.6 42.6725H1074.57L1079.05 54.997H1075.18L1074.68 53.3352H1070.36ZM1074.04 50.9824L1072.51 45.8456L1071.03 50.9824H1074.04ZM1078.27 46.2127C1078.06 46.1263 1077.87 45.9968 1077.69 45.824C1077.54 45.6516 1077.39 45.4572 1077.31 45.2414C1077.2 45.0256 1077.15 44.7882 1077.15 44.529C1077.15 44.2701 1077.2 44.0327 1077.31 43.8169C1077.39 43.6011 1077.52 43.4067 1077.69 43.2339C1077.87 43.083 1078.06 42.9535 1078.27 42.8456C1078.49 42.7377 1078.73 42.6943 1078.98 42.6943C1079.24 42.6943 1079.48 42.7377 1079.69 42.8456C1079.91 42.9317 1080.1 43.0614 1080.27 43.2339C1080.42 43.4067 1080.55 43.6011 1080.66 43.8169C1080.77 44.0327 1080.81 44.2701 1080.81 44.529C1080.81 44.7882 1080.77 45.0256 1080.66 45.2414C1080.57 45.4572 1080.44 45.6516 1080.27 45.824C1080.1 45.9753 1079.91 46.1263 1079.69 46.2127C1079.48 46.3206 1079.24 46.3636 1078.98 46.3636C1078.73 46.3636 1078.49 46.3206 1078.27 46.2127ZM1078.01 43.4498C1077.89 43.5792 1077.78 43.752 1077.71 43.9248C1077.65 44.0973 1077.61 44.3131 1077.61 44.529C1077.61 44.7448 1077.65 44.9607 1077.71 45.1335C1077.8 45.3278 1077.89 45.4788 1078.01 45.6082C1078.14 45.7376 1078.3 45.8456 1078.47 45.9104C1078.64 45.9753 1078.81 46.0184 1079 46.0184C1079.2 46.0184 1079.37 45.9753 1079.54 45.9104C1079.71 45.8456 1079.86 45.7376 1079.99 45.6082C1080.12 45.4788 1080.23 45.306 1080.3 45.1335C1080.36 44.9391 1080.4 44.7448 1080.4 44.529C1080.4 44.3131 1080.36 44.0973 1080.3 43.9248C1080.21 43.7305 1080.12 43.5792 1079.99 43.4498C1079.86 43.3203 1079.71 43.2124 1079.54 43.1475C1079.37 43.083 1079.2 43.0396 1079 43.0396C1078.81 43.0396 1078.64 43.083 1078.47 43.1475C1078.3 43.2124 1078.14 43.3203 1078.01 43.4498ZM1078.7 44.6564H1078.92L1079.45 45.5632H1079.86L1079.31 44.6564C1079.48 44.6349 1079.61 44.5919 1079.71 44.5055C1079.8 44.4191 1079.86 44.2896 1079.86 44.0953C1079.86 43.8795 1079.8 43.707 1079.67 43.6206C1079.54 43.5342 1079.35 43.4693 1079.09 43.4693H1078.32V45.5632H1078.7V44.6564ZM1078.68 43.75H1079.03H1079.18C1079.22 43.75 1079.26 43.7715 1079.31 43.793C1079.35 43.8149 1079.37 43.8364 1079.41 43.8795C1079.43 43.9228 1079.45 43.9659 1079.45 44.0307C1079.45 44.0953 1079.43 44.1602 1079.41 44.2032C1079.41 44.2067 1079.41 44.2101 1079.41 44.2134C1079.39 44.2376 1079.37 44.2544 1079.35 44.2687L1079.35 44.2697L1079.35 44.2728L1079.34 44.2794C1079.34 44.2828 1079.33 44.2862 1079.33 44.2896C1079.29 44.3111 1079.24 44.3327 1079.2 44.3327H1079.03H1078.68V43.75ZM1045.65 76.8168C1045.82 77.0111 1046.06 77.162 1046.32 77.27C1046.57 77.3779 1046.9 77.4209 1047.24 77.4209C1047.58 77.4209 1047.89 77.3779 1048.16 77.27C1048.42 77.162 1048.66 77.0111 1048.83 76.8168C1049 76.6224 1049.15 76.3851 1049.24 76.1259C1049.33 75.8455 1049.37 75.5432 1049.37 75.1979C1049.37 74.8527 1049.33 74.5504 1049.24 74.2697C1049.15 73.9893 1049 73.7516 1048.83 73.5791C1048.66 73.3848 1048.42 73.2338 1048.16 73.1474C1047.91 73.0395 1047.58 72.9961 1047.24 72.9961C1046.9 72.9961 1046.57 73.0395 1046.32 73.1474C1046.06 73.2553 1045.82 73.4063 1045.65 73.5791C1045.48 73.7734 1045.33 74.0108 1045.24 74.2697C1045.15 74.5504 1045.11 74.8527 1045.11 75.1979C1045.11 75.5432 1045.15 75.8455 1045.24 76.1259C1045.33 76.4066 1045.48 76.644 1045.65 76.8168ZM1046.34 74.6798C1046.38 74.507 1046.42 74.3776 1046.51 74.2482C1046.59 74.1187 1046.68 74.0323 1046.81 73.9459C1046.94 73.8814 1047.09 73.838 1047.26 73.838C1047.44 73.838 1047.58 73.8814 1047.71 73.9459C1047.84 74.0108 1047.93 74.1187 1048.01 74.2482C1048.1 74.3773 1048.14 74.5281 1048.19 74.6787L1048.19 74.6798C1048.23 74.8527 1048.25 75.0251 1048.25 75.1979C1048.25 75.3704 1048.23 75.5432 1048.19 75.716C1048.14 75.8885 1048.1 76.0179 1048.01 76.1477C1047.93 76.2772 1047.84 76.3851 1047.71 76.4496C1047.58 76.536 1047.44 76.5576 1047.26 76.5576C1047.09 76.5576 1046.94 76.5145 1046.81 76.4496C1046.68 76.3851 1046.59 76.2772 1046.51 76.1477C1046.42 76.0179 1046.38 75.867 1046.34 75.716C1046.29 75.5432 1046.27 75.3704 1046.27 75.1979C1046.27 75.0251 1046.29 74.8527 1046.34 74.6798ZM1053.09 75.6296H1051.46V77.3575H1050.32V73.0619H1053.18V73.8609H1051.46V74.8102H1053.09V75.6296ZM1055.16 75.6296H1056.81V74.8102H1055.16V73.8609H1056.87V73.0619H1054.02V77.3575H1055.16V75.6296ZM1057.82 73.0619H1058.96V77.3575H1057.82V73.0619ZM1060.77 76.9255C1061.01 77.0983 1061.26 77.2278 1061.57 77.2926C1061.87 77.379 1062.14 77.4006 1062.42 77.4006C1062.7 77.4006 1062.96 77.379 1063.15 77.3357C1063.19 77.327 1063.23 77.3184 1063.27 77.3099L1063.27 77.3096C1063.42 77.2759 1063.56 77.2449 1063.69 77.2278L1063.63 76.3213C1063.48 76.3859 1063.31 76.4293 1063.11 76.4723C1062.92 76.5157 1062.75 76.5372 1062.55 76.5372C1062.34 76.5372 1062.14 76.5157 1061.97 76.4508C1061.8 76.3859 1061.65 76.2998 1061.52 76.1919C1061.39 76.084 1061.31 75.9327 1061.22 75.7602C1061.15 75.5874 1061.11 75.3931 1061.11 75.1988C1061.11 75.0048 1061.16 74.8104 1061.2 74.6376C1061.26 74.4652 1061.35 74.3139 1061.48 74.2059C1061.59 74.0765 1061.74 73.9901 1061.91 73.9255C1062.08 73.8607 1062.25 73.8176 1062.47 73.8176C1062.66 73.8176 1062.85 73.8391 1063.03 73.8822C1063.2 73.9256 1063.39 74.0116 1063.56 74.1195L1063.65 73.1916C1063.44 73.1267 1063.24 73.0837 1063.03 73.0403C1062.81 72.9973 1062.6 72.9758 1062.38 72.9758C1062.04 72.9758 1061.69 73.0188 1061.41 73.1052C1061.11 73.1916 1060.85 73.3426 1060.64 73.5154C1060.42 73.7097 1060.25 73.9256 1060.12 74.2059C1059.99 74.4867 1059.93 74.8104 1059.93 75.1772C1059.93 75.5874 1059.99 75.9327 1060.15 76.2134C1060.34 76.5372 1060.53 76.753 1060.77 76.9255ZM1064.57 73.0619H1065.71V77.3575H1064.57V73.0619ZM1068.01 76.4307H1069.63L1069.95 77.3371H1071.2L1069.54 73.0418H1068.14L1066.51 77.3371H1067.67L1068.01 76.4307ZM1068.83 73.9485L1069.35 75.6319H1068.27L1068.83 73.9485ZM1073.09 76.4928H1074.85V77.3575H1071.95V73.0619H1073.09V76.4928ZM1048.01 83.7929H1046.25V80.3386H1045.11V84.6342H1048.01V83.7929ZM1048.88 80.3386H1050.02V84.6342H1048.88V80.3386ZM1051.71 80.8351C1051.5 81.0295 1051.32 81.2453 1051.2 81.5257C1051.07 81.8064 1051 82.1302 1051 82.497C1051 82.9072 1051.07 83.2524 1051.22 83.5332C1051.37 83.8139 1051.56 84.0513 1051.8 84.2022C1052.04 84.375 1052.29 84.5045 1052.6 84.569C1052.9 84.6554 1053.18 84.6769 1053.46 84.6769C1053.73 84.6769 1053.99 84.6554 1054.19 84.6124C1054.38 84.569 1054.55 84.526 1054.72 84.5045L1054.66 83.5981C1054.51 83.6626 1054.34 83.7057 1054.14 83.749C1053.95 83.7921 1053.78 83.8139 1053.58 83.8139C1053.37 83.8139 1053.18 83.7921 1053 83.7275C1052.83 83.6626 1052.68 83.5762 1052.55 83.4683C1052.42 83.3604 1052.34 83.2094 1052.25 83.0366C1052.19 82.8641 1052.14 82.6698 1052.14 82.4755C1052.14 82.2812 1052.17 82.0872 1052.23 81.9144C1052.29 81.7415 1052.38 81.5906 1052.51 81.4827C1052.62 81.3532 1052.77 81.2668 1052.94 81.2019C1053.11 81.1374 1053.28 81.094 1053.5 81.094C1053.69 81.094 1053.88 81.1159 1054.06 81.1589C1054.23 81.2019 1054.42 81.2883 1054.6 81.3963L1054.68 80.4683C1054.47 80.4035 1054.27 80.3604 1054.06 80.3171C1053.84 80.274 1053.63 80.2525 1053.41 80.2525C1053.07 80.2525 1052.75 80.2955 1052.44 80.3819C1052.19 80.5114 1051.93 80.6408 1051.71 80.8351ZM1058.45 82.8655H1056.68V83.8352H1058.62V84.6342H1055.54V80.3386H1058.55V81.1595H1056.68V82.0446H1058.45V82.8655ZM1060.66 81.699L1062.16 84.6342H1063.57V80.3386H1062.53L1062.55 83.2534H1062.53L1061.09 80.3386H1059.63V84.6342H1060.68L1060.66 81.699ZM1065.58 82.7992C1065.39 82.7562 1065.24 82.6698 1065.09 82.5834C1064.95 82.4996 1064.82 82.3752 1064.71 82.2693L1064.7 82.2596C1064.6 82.1087 1064.55 81.8928 1064.55 81.6336C1064.55 81.3748 1064.62 81.1589 1064.73 80.9861C1064.83 80.8136 1064.98 80.6842 1065.15 80.5763C1065.33 80.4683 1065.54 80.4035 1065.76 80.3604C1065.99 80.3171 1066.21 80.2955 1066.42 80.2955C1066.64 80.2955 1066.83 80.3164 1067.02 80.3376L1067.03 80.3386C1067.22 80.3604 1067.37 80.4035 1067.52 80.4465L1067.46 81.3317C1067.33 81.2668 1067.18 81.2019 1067 81.1804C1066.83 81.1589 1066.68 81.1374 1066.51 81.1374H1066.27C1066.17 81.1374 1066.1 81.1589 1066.01 81.1804C1065.93 81.2238 1065.86 81.2668 1065.82 81.3099C1065.76 81.3532 1065.74 81.4396 1065.74 81.5257C1065.74 81.6336 1065.78 81.72 1065.88 81.7849L1065.89 81.7861L1065.89 81.7863C1065.97 81.8294 1066.1 81.8933 1066.25 81.9359C1066.4 82.0008 1066.57 82.0438 1066.75 82.0872C1066.94 82.129 1067.08 82.212 1067.23 82.2961L1067.24 82.303C1067.39 82.3891 1067.5 82.5189 1067.61 82.6698C1067.72 82.8208 1067.76 83.0366 1067.76 83.2958C1067.76 83.5762 1067.72 83.8136 1067.61 83.9864C1067.5 84.1592 1067.35 84.3101 1067.18 84.4181C1067 84.526 1066.81 84.5909 1066.57 84.6339C1066.36 84.6769 1066.12 84.6988 1065.88 84.6988C1065.69 84.6988 1065.48 84.6769 1065.24 84.6554C1065.03 84.6339 1064.81 84.5909 1064.62 84.526L1064.73 83.5762C1064.75 83.5875 1064.78 83.5995 1064.81 83.6118L1064.81 83.612C1064.94 83.6701 1065.08 83.7351 1065.24 83.7705C1065.43 83.8354 1065.65 83.8569 1065.88 83.8569C1065.93 83.8569 1065.97 83.8516 1066.01 83.8462C1066.06 83.8408 1066.1 83.8354 1066.14 83.8354L1066.16 83.8313C1066.24 83.8109 1066.32 83.7907 1066.38 83.7705C1066.44 83.749 1066.49 83.7057 1066.53 83.6411C1066.57 83.5762 1066.6 83.5117 1066.6 83.4253C1066.6 83.2958 1066.55 83.1879 1066.44 83.123C1066.36 83.0581 1066.23 82.9936 1066.08 82.9505C1066.02 82.9327 1065.95 82.9114 1065.88 82.8894L1065.81 82.8641C1065.77 82.8528 1065.73 82.8416 1065.7 82.831C1065.66 82.8196 1065.62 82.8089 1065.58 82.7992ZM1071.74 81.1595V80.3386H1068.73V84.6342H1071.8V83.8352H1069.86V82.8655H1071.63V82.0446H1069.86V81.1595H1071.74ZM1072.79 84.634V80.3386H1074.34C1074.72 80.3386 1075.07 80.3817 1075.37 80.4465C1075.67 80.5111 1075.95 80.619 1076.17 80.7918C1076.38 80.9428 1076.55 81.1586 1076.68 81.4394C1076.81 81.7201 1076.88 82.0654 1076.88 82.4755C1076.88 82.8854 1076.81 83.2092 1076.68 83.4899C1076.55 83.7706 1076.36 83.9865 1076.14 84.1589C1075.93 84.3317 1075.65 84.4397 1075.35 84.5261C1075.05 84.5906 1074.7 84.634 1074.34 84.634H1072.79ZM1075.69 82.4971C1075.69 82.0654 1075.58 81.7416 1075.35 81.5258C1075.13 81.3099 1074.79 81.202 1074.36 81.202H1073.91V83.7921H1074.36C1074.79 83.7921 1075.11 83.6842 1075.35 83.4684C1075.58 83.2525 1075.69 82.9288 1075.69 82.4971ZM1046.7 90.4181H1046.25V91.929H1045.11V87.6336H1046.47C1047.13 87.6336 1047.63 87.7415 1047.93 87.9789C1048.25 88.1947 1048.4 88.5619 1048.4 89.0366C1048.4 89.4683 1048.25 89.8136 1047.95 90.0509C1047.65 90.2886 1047.24 90.4181 1046.7 90.4181ZM1046.55 88.4321H1046.25V89.5977H1046.55C1046.66 89.5977 1046.75 89.5977 1046.83 89.5762C1046.91 89.5561 1046.97 89.5167 1047.04 89.4765L1047.05 89.4683L1047.05 89.4624C1047.11 89.4007 1047.16 89.3577 1047.2 89.274C1047.24 89.1876 1047.26 89.1015 1047.26 88.9936C1047.26 88.8857 1047.24 88.7777 1047.2 88.7128C1047.15 88.648 1047.11 88.5834 1047.05 88.54C1046.98 88.497 1046.92 88.4755 1046.83 88.454C1046.75 88.4321 1046.66 88.4321 1046.55 88.4321ZM1052.21 90.2813C1052.22 90.3174 1052.24 90.3554 1052.25 90.3966C1052.3 90.5045 1052.34 90.6121 1052.36 90.7634L1052.77 91.929H1051.58L1051.35 91.1517C1051.32 91.0771 1051.29 91.0025 1051.27 90.9332C1051.23 90.842 1051.2 90.7598 1051.18 90.6985C1051.15 90.6611 1051.13 90.6237 1051.11 90.5881L1051.11 90.5874C1051.08 90.5205 1051.05 90.4601 1051 90.4181C1050.96 90.3317 1050.88 90.2886 1050.81 90.2668C1050.72 90.2453 1050.64 90.2237 1050.53 90.2237H1050.3V91.929H1049.15V87.6336H1051.2C1051.39 87.6336 1051.56 87.6551 1051.74 87.6985C1051.91 87.7415 1052.06 87.8064 1052.19 87.8925C1052.32 88.0004 1052.42 88.1083 1052.49 88.2381C1052.55 88.3676 1052.6 88.5185 1052.6 88.7128C1052.6 89.0151 1052.53 89.2309 1052.4 89.4253C1052.27 89.5977 1052.06 89.7272 1051.78 89.7921V89.8136C1051.86 89.8338 1051.92 89.8731 1051.98 89.9134L1051.99 89.9215C1052.06 89.9649 1052.1 90.0294 1052.14 90.1158C1052.17 90.1693 1052.19 90.2227 1052.21 90.2813ZM1051.2 89.3389C1051.21 89.3299 1051.22 89.321 1051.24 89.3119L1051.26 89.2978C1051.31 89.2666 1051.36 89.2322 1051.39 89.1876C1051.43 89.123 1051.45 89.0366 1051.48 88.9072C1051.48 88.8208 1051.45 88.7344 1051.41 88.6698C1051.35 88.6049 1051.31 88.5619 1051.22 88.5185C1051.18 88.5042 1051.12 88.49 1051.06 88.4757C1051.03 88.4685 1051 88.4612 1050.96 88.454C1050.85 88.4321 1050.75 88.4321 1050.64 88.4321H1050.34V89.4034H1050.64H1050.92C1050.93 89.4001 1050.95 89.3974 1050.97 89.3949L1050.99 89.3916L1051.01 89.3881C1051.08 89.378 1051.14 89.3689 1051.2 89.3389ZM1056.53 87.72C1056.79 87.8064 1057.03 87.9574 1057.2 88.1517C1057.37 88.346 1057.52 88.5619 1057.61 88.8423C1057.69 89.123 1057.73 89.4253 1057.73 89.7705C1057.73 90.1158 1057.69 90.4181 1057.61 90.6988C1057.52 90.9577 1057.37 91.195 1057.2 91.3894C1057.03 91.5837 1056.79 91.7347 1056.53 91.8426C1056.25 91.9505 1055.95 91.9939 1055.61 91.9939C1055.26 91.9939 1054.94 91.9505 1054.68 91.8426C1054.42 91.7347 1054.19 91.5837 1054.01 91.3894C1053.84 91.2166 1053.69 90.9792 1053.61 90.6988C1053.52 90.4181 1053.48 90.1158 1053.48 89.7705C1053.48 89.4253 1053.52 89.123 1053.61 88.8423C1053.69 88.5834 1053.84 88.346 1054.01 88.1517C1054.19 87.9789 1054.42 87.8279 1054.68 87.72C1054.94 87.6121 1055.26 87.5691 1055.61 87.5691C1055.95 87.5691 1056.27 87.6121 1056.53 87.72ZM1056.34 90.7203C1056.42 90.5909 1056.47 90.4611 1056.51 90.2886C1056.55 90.1158 1056.57 89.9433 1056.57 89.7705C1056.57 89.5977 1056.55 89.4253 1056.51 89.2524L1056.51 89.2519C1056.47 89.1011 1056.42 88.95 1056.34 88.8208C1056.25 88.6913 1056.17 88.5834 1056.04 88.5185C1055.91 88.454 1055.76 88.4106 1055.59 88.4106C1055.41 88.4106 1055.26 88.454 1055.13 88.5185C1055 88.6049 1054.92 88.6913 1054.83 88.8208C1054.74 88.9502 1054.7 89.08 1054.66 89.2524C1054.62 89.4037 1054.6 89.5762 1054.6 89.7705C1054.6 89.9433 1054.62 90.1158 1054.66 90.2886L1054.66 90.2892C1054.7 90.44 1054.75 90.591 1054.83 90.7203C1054.92 90.8498 1055 90.9577 1055.13 91.0226C1055.26 91.0871 1055.41 91.1305 1055.59 91.1305C1055.76 91.1305 1055.91 91.1086 1056.04 91.0226C1056.17 90.9577 1056.25 90.8498 1056.34 90.7203ZM1061.26 87.7197C1061.56 87.7846 1061.84 87.8925 1062.06 88.065C1062.29 88.2378 1062.46 88.4536 1062.57 88.7125C1062.7 88.9932 1062.77 89.3385 1062.77 89.7487C1062.77 90.1589 1062.7 90.4826 1062.57 90.763C1062.45 91.0438 1062.25 91.2596 1062.04 91.4321C1061.82 91.6049 1061.54 91.7128 1061.24 91.7992C1060.94 91.8638 1060.59 91.9071 1060.23 91.9071H1058.68V87.6118H1060.23C1060.62 87.6118 1060.96 87.6548 1061.26 87.7197ZM1060.27 91.0653C1060.7 91.0653 1061.02 90.9574 1061.26 90.7415C1061.48 90.5257 1061.61 90.2019 1061.61 89.7702C1061.61 89.3385 1061.5 89.0148 1061.26 88.7989C1061.02 88.5831 1060.7 88.4752 1060.27 88.4752H1059.82V91.0653H1060.27ZM1064.81 91.8856C1064.57 91.8211 1064.38 91.7131 1064.21 91.5834C1064.06 91.4539 1063.93 91.2596 1063.82 91.0438C1063.74 90.8279 1063.69 90.5906 1063.69 90.2883V87.6336H1064.83V90.1158C1064.83 90.2499 1064.85 90.3669 1064.87 90.4823L1064.87 90.526L1064.88 90.5302C1064.9 90.6373 1064.92 90.7645 1064.98 90.8498C1065.02 90.9572 1065.11 91.0217 1065.19 91.0863L1065.2 91.0871C1065.31 91.1517 1065.41 91.1735 1065.56 91.1735C1065.71 91.1735 1065.84 91.1517 1065.93 91.0871C1066.01 91.0222 1066.08 90.9358 1066.14 90.8498C1066.19 90.7634 1066.23 90.6554 1066.25 90.526L1066.26 90.4817C1066.28 90.3665 1066.3 90.2496 1066.3 90.1158V87.6336H1067.43V90.3102C1067.43 90.5906 1067.39 90.8498 1067.3 91.0656C1067.22 91.2596 1067.09 91.4539 1066.92 91.5834C1066.75 91.7131 1066.55 91.8211 1066.31 91.8856C1066.1 91.9505 1065.84 91.9935 1065.56 91.9935C1065.31 91.9935 1065.05 91.9505 1064.81 91.8856ZM1070.94 91.152C1071.13 91.152 1071.3 91.1305 1071.5 91.0875C1071.67 91.0441 1071.84 90.9795 1071.97 90.8931L1072.04 91.7995C1071.89 91.8176 1071.75 91.8499 1071.6 91.8848L1071.5 91.9075C1071.3 91.9508 1071.05 91.9724 1070.77 91.9724C1070.49 91.9724 1070.21 91.9508 1069.91 91.8644C1069.61 91.7995 1069.35 91.6701 1069.11 91.4976C1068.87 91.3463 1068.68 91.109 1068.53 90.8282C1068.38 90.5479 1068.31 90.2026 1068.31 89.7924C1068.31 89.4253 1068.38 89.1015 1068.51 88.8211C1068.64 88.5404 1068.81 88.3245 1069.03 88.1305C1069.24 87.9577 1069.5 87.8064 1069.8 87.7204C1070.1 87.6339 1070.42 87.5909 1070.77 87.5909C1070.98 87.5909 1071.2 87.6124 1071.41 87.6555C1071.63 87.6988 1071.82 87.7419 1072.04 87.8068L1071.95 88.7347C1071.78 88.6268 1071.59 88.5404 1071.41 88.4973C1071.24 88.454 1071.05 88.4324 1070.85 88.4324C1070.64 88.4324 1070.47 88.4758 1070.29 88.5404C1070.12 88.6053 1069.97 88.6917 1069.86 88.8211C1069.73 88.929 1069.65 89.08 1069.59 89.2528C1069.54 89.4253 1069.5 89.6196 1069.5 89.8139C1069.5 90.0082 1069.54 90.2026 1069.61 90.375C1069.69 90.5478 1069.78 90.6988 1069.91 90.8067C1070.04 90.9146 1070.19 91.0011 1070.36 91.0659C1070.53 91.1305 1070.72 91.152 1070.94 91.152ZM1072.58 88.4736H1073.63V91.9264H1074.77V88.4736H1075.82V87.6309H1072.58V88.4736ZM1033.69 100.562V32.4635H1087.97V100.562H1033.69ZM1034.29 99.9574H1087.39V66.8039H1034.29V99.9574ZM1034.29 66.1997H1087.39V33.0462H1034.29V66.1997ZM735.215 32.4635H785.838L783.28 47.3565H751.388L749.194 59.8743H774.893L772.334 74.7687H746.527L742.053 100.561H723.215L735.215 32.4635ZM811.171 32.4635H792.417L780.419 100.561H799.171L811.171 32.4635ZM817.753 32.4635H868.376L865.817 47.3565H833.946L831.753 59.8743H857.452L854.893 74.7687H829.108L824.633 100.561H805.796L817.753 32.4635ZM905.109 32.3544H884.076L848.57 100.539H866.657L872.377 88.6029H895.883L897.41 100.539H916.056L905.109 32.3544ZM890.936 49.8376L894.076 74.3788H879.13L890.549 49.8376H890.936ZM1011.56 32.4635L989.733 36.5214L987.668 48.8889L999.624 48.3276L990.398 100.539H1007.73L1019.67 32.4635H1011.56ZM951.991 68.7461L929.539 90.2437L927.755 100.561H974.658L977.217 85.8622H953.712L953.798 85.3875L960.164 79.6458C961.161 78.7481 962.213 77.824 963.297 76.8725C972.034 69.1993 982.808 59.7366 982.808 47.8308C982.808 35.7869 973.022 31.4916 962.356 31.4916C948.853 31.4916 937.13 37.5137 934.571 51.2628C934.529 51.4102 934.39 52.2352 934.249 53.0743C934.101 53.9559 933.95 54.853 933.906 54.9967H950.743C951.518 50.2266 952.938 45.1543 958.936 45.1543C962.164 45.1543 964.829 46.8595 964.829 50.3994C964.829 56.4078 957.705 63.2542 952.752 68.0138C952.492 68.2638 952.238 68.508 951.991 68.7461Z" fill="white"/>
</g>
<defs>
<clipPath id="clip0">
<rect width="506.553" height="132.398" fill="white" transform="translate(581.447)"/>
</clipPath>
</defs>
</svg>
